<?xml version="1.0" encoding="UTF-8"?>
<svg version="1.1" xmlns="http://www.w3.org/2000/svg" width="500" height="500">
<path d="M0 0 C0.82849457 0.00215515 1.65698914 0.0043103 2.5105896 0.00653076 C59.91267129 0.24507126 116.53536314 21.64447058 158.375 61.3125 C159.64126796 62.38043683 160.91190032 63.44322705 162.1875 64.5 C177.94791734 78.29439391 190.6312848 95.43285884 201.375 113.3125 C201.76896973 113.96347656 202.16293945 114.61445313 202.56884766 115.28515625 C224.02929872 151.14613988 234.88422556 192.26797545 234.6875 233.9375 C234.68534485 234.76599457 234.6831897 235.59448914 234.68096924 236.4480896 C234.44242874 293.85017129 213.04302942 350.47286314 173.375 392.3125 C172.30706317 393.57876796 171.24427295 394.84940032 170.1875 396.125 C156.39310609 411.88541734 139.25464116 424.5687848 121.375 435.3125 C120.72402344 435.70646973 120.07304687 436.10043945 119.40234375 436.50634766 C83.54136012 457.96679872 42.41952455 468.82172556 0.75 468.625 C-0.07849457 468.62284485 -0.90698914 468.6206897 -1.7605896 468.61846924 C-59.16267129 468.37992874 -115.78536314 446.98052942 -157.625 407.3125 C-158.89126796 406.24456317 -160.16190032 405.18177295 -161.4375 404.125 C-177.19791734 390.33060609 -189.8812848 373.19214116 -200.625 355.3125 C-201.01896973 354.66152344 -201.41293945 354.01054687 -201.81884766 353.33984375 C-223.27929872 317.47886012 -234.13422556 276.35702455 -233.9375 234.6875 C-233.93534485 233.85900543 -233.9331897 233.03051086 -233.93096924 232.1769104 C-233.69242874 174.77482871 -212.29302942 118.15213686 -172.625 76.3125 C-171.55706317 75.04623204 -170.49427295 73.77559968 -169.4375 72.5 C-155.64310609 56.73958266 -138.50464116 44.0562152 -120.625 33.3125 C-119.64853516 32.72154541 -119.64853516 32.72154541 -118.65234375 32.11865234 C-82.79136012 10.65820128 -41.66952455 -0.19672556 0 0 Z " fill="#FF8A4B" transform="translate(249.625,15.6875)"/>
</svg>
